<?xml version="1.0" standalone="no"?>
<!DOCTYPE svg PUBLIC "-//W3C//DTD SVG 20010904//EN"
 "http://www.w3.org/TR/2001/REC-SVG-20010904/DTD/svg10.dtd">
<svg version="1.0" xmlns="http://www.w3.org/2000/svg"
 width="640.000000pt" height="640.000000pt" viewBox="0 0 640.000000 640.000000"
 preserveAspectRatio="xMidYMid meet">
<metadata>
Created by potrace 1.11, written by Peter Selinger 2001-2013
</metadata>
<g transform="translate(0.000000,640.000000) scale(0.100000,-0.100000)"
fill="#000000" stroke="none">
<path d="M5216 6283 c-8 -9 -67 -20 -114 -22 -7 -1 -10 -6 -7 -11 4 -6 28 -8
58 -5 37 3 45 2 27 -4 -24 -9 -25 -9 -2 -10 14 -1 26 -10 31 -23 9 -23 9 -23
20 5 6 16 11 37 11 47 0 21 -13 33 -24 23z"/>
<path d="M4157 6124 c-15 -8 -46 -16 -67 -17 -22 -1 -40 -5 -40 -10 0 -5 -9
-7 -20 -4 -12 3 -25 -2 -33 -12 -21 -31 -52 -42 -85 -30 -16 6 -49 8 -73 5
-24 -2 -52 -5 -62 -5 -10 -1 -17 -7 -15 -14 4 -17 -38 -57 -49 -47 -13 13 -64
-34 -66 -61 0 -13 -13 -35 -27 -49 -36 -35 -88 -112 -96 -143 -3 -15 -10 -27
-14 -27 -13 0 -67 -133 -83 -205 -18 -81 -11 -149 22 -214 12 -22 25 -67 31
-98 9 -61 55 -201 71 -218 5 -5 9 41 9 118 0 70 4 127 9 127 5 0 11 -6 14 -12
3 -9 10 -8 26 6 11 11 21 14 21 8 0 -6 -9 -17 -19 -24 -18 -12 -20 -28 -23
-132 -2 -103 0 -119 15 -127 20 -11 23 -68 7 -137 -9 -36 -6 -55 15 -120 14
-43 45 -110 70 -149 38 -61 45 -81 47 -132 2 -34 8 -61 13 -62 6 0 -10 -7 -35
-14 -43 -14 -90 -62 -90 -93 0 -7 -5 -12 -12 -12 -6 0 -8 -3 -5 -7 4 -4 -5
-20 -20 -37 -24 -27 -23 -26 10 4 l37 34 -6 -34 c-7 -37 -86 -124 -100 -112
-4 4 -4 -2 1 -13 4 -11 10 -28 12 -37 6 -20 19 -23 28 -8 4 6 10 8 15 5 4 -3
11 11 14 30 8 42 23 46 28 8 4 -36 38 -45 39 -11 1 27 5 17 13 -33 5 -30 10
-36 25 -32 13 3 17 11 14 24 -3 11 -2 19 3 18 24 -4 38 1 28 11 -6 6 -8 24 -6
41 8 57 22 7 20 -76 -1 -69 -2 -74 -8 -35 l-7 45 -1 -40 c-2 -47 11 -77 22
-50 3 9 6 30 6 47 0 26 3 30 20 25 15 -4 21 -1 19 11 -1 9 0 31 1 47 2 22 4
25 7 10 3 -11 12 -29 22 -39 9 -11 10 -16 4 -12 -10 5 -13 -5 -13 -41 0 -35 3
-44 10 -33 9 13 11 13 20 0 8 -12 10 -12 10 5 1 19 1 19 15 2 13 -18 14 -17
18 10 3 24 4 22 6 -10 0 -20 5 -36 10 -35 5 2 17 -6 25 -17 14 -19 15 -18 6
15 -13 44 -12 59 0 40 5 -8 10 -11 10 -6 0 5 8 -1 19 -12 21 -25 31 -28 31 -9
0 7 -25 37 -55 67 -30 30 -55 58 -55 63 0 5 7 4 15 -3 11 -9 15 -9 15 -1 0 7
5 9 10 6 6 -4 8 -10 5 -15 -3 -5 6 -15 19 -22 14 -7 26 -17 27 -23 3 -19 34
-50 51 -51 10 -1 16 2 13 6 -3 4 15 24 40 45 50 41 54 58 25 115 -14 28 -17
41 -8 46 6 4 8 3 5 -3 -4 -6 0 -14 9 -17 10 -4 13 -2 8 7 -5 7 0 5 11 -3 14
-11 19 -12 22 -2 5 14 33 16 33 2 0 -5 9 -10 21 -10 15 0 19 5 15 15 -6 17 2
19 24 5 11 -7 11 -10 2 -10 -7 0 -11 -4 -8 -8 2 -4 -17 -32 -44 -61 -27 -30
-48 -56 -48 -60 1 -3 -4 -23 -12 -43 -9 -25 -17 -34 -22 -25 -6 9 -8 9 -8 -1
0 -7 -4 -10 -10 -7 -6 3 -7 -1 -3 -10 5 -13 7 -14 14 -3 7 10 9 10 9 1 0 -8 8
-5 20 7 11 11 24 20 30 20 5 0 6 7 3 17 -4 10 -2 14 4 10 6 -4 13 3 16 14 3
12 10 18 16 14 7 -4 8 0 4 11 -4 12 -3 15 5 10 7 -4 12 -1 12 8 0 18 35 22 45
6 4 -6 3 -9 -2 -8 -4 2 -9 0 -10 -4 -2 -5 -1 -8 2 -8 3 0 12 0 20 0 9 0 15 6
14 13 -1 6 -1 19 0 27 1 12 3 12 10 2 13 -22 56 -4 68 29 11 27 33 41 33 19 0
-5 -4 -10 -9 -10 -17 0 2 -48 21 -53 15 -4 22 1 30 24 10 30 28 31 28 1 0 -15
-2 -15 -10 -2 -9 13 -10 13 -9 0 2 -25 17 -67 18 -48 1 9 6 20 12 24 8 4 9 -1
4 -17 -5 -19 -2 -17 14 9 23 36 36 42 26 12 -5 -15 -2 -20 11 -20 10 0 15 3
11 6 -7 7 30 86 45 95 6 4 -3 9 -18 13 -56 14 -160 69 -209 111 -57 48 -90 67
-99 58 -3 -3 -6 -2 -6 4 0 5 41 59 91 118 129 152 162 205 129 205 -5 0 -10
-8 -10 -19 0 -23 -25 -45 -44 -38 -8 3 -27 -6 -42 -21 l-27 -27 8 35 c25 111
37 180 38 220 l2 45 -77 -3 -76 -4 -49 44 c-26 23 -50 45 -53 48 -3 3 -21 14
-40 24 -32 16 -33 17 -8 13 15 -2 25 0 22 4 -3 5 8 9 24 9 16 0 44 7 63 16 54
26 111 96 64 78 -7 -3 -16 -1 -20 5 -4 7 0 8 11 4 12 -4 15 -3 10 5 -9 15 -1
15 24 2 12 -6 21 -7 25 0 3 5 12 7 20 3 19 -7 19 6 0 31 -7 10 -18 15 -23 12
-5 -3 -15 1 -22 8 -11 14 -46 25 -96 31 -14 1 -28 6 -32 10 -4 4 3 5 16 2 12
-3 22 0 22 5 0 6 7 5 16 -3 13 -10 17 -10 24 0 4 8 13 10 20 6 17 -10 70 -13
76 -3 13 21 -12 52 -60 73 -46 20 -67 23 -170 22 -69 -1 -126 2 -138 9 -20 11
-20 11 3 33 13 12 35 24 49 27 37 9 90 34 90 43 0 5 -7 21 -15 37 -29 57 23
73 142 43 33 -9 45 -19 58 -45 8 -18 14 -39 13 -46 -2 -8 4 -12 15 -10 9 2 17
-1 17 -6 0 -5 9 -19 20 -32 11 -12 17 -27 14 -31 -3 -5 -1 -9 5 -9 5 0 12 -9
16 -19 3 -11 12 -18 20 -15 22 9 27 -13 31 -139 2 -67 6 -147 10 -177 4 -30 7
-59 5 -64 -6 -24 11 -44 32 -38 22 6 22 6 -3 13 -14 4 -18 7 -10 8 12 1 14 17
12 96 -2 63 0 95 7 95 6 0 11 -5 11 -11 0 -5 4 -8 8 -5 4 2 14 1 22 -5 13 -7
13 -9 -1 -9 -11 0 -18 -12 -23 -37 -8 -53 -8 -63 5 -63 5 0 8 4 5 9 -3 5 12
27 34 49 22 22 40 48 40 58 0 37 -13 64 -29 64 -30 0 -32 12 -4 27 14 7 27 12
28 11 1 -2 6 -19 12 -38 l10 -35 12 28 c6 16 11 85 11 160 0 82 6 156 15 196
9 35 13 72 9 83 -3 10 -7 44 -9 76 -5 68 -7 80 -23 109 -7 12 -9 29 -6 37 4
10 -9 36 -34 69 -43 57 -219 237 -230 236 -4 -1 -14 -1 -22 1 -11 1 -10 3 4 9
17 6 14 10 -20 31 -28 17 -54 24 -91 25 -29 0 -48 2 -43 3 6 2 10 8 10 13 0
14 -52 10 -83 -7z m111 -1031 c-4 -24 -23 -27 -25 -3 -1 12 4 20 13 20 9 0 14
-7 12 -17z m-268 -31 c0 -30 24 -87 41 -98 6 -3 17 2 24 12 14 18 14 18 15 -1
0 -12 5 -26 12 -33 9 -9 9 -12 0 -12 -6 0 -11 -11 -10 -24 1 -14 6 -22 10 -20
10 6 48 -14 48 -25 0 -22 -184 -39 -197 -18 -12 20 -2 189 13 219 19 37 44 37
44 0z m157 1 c-3 -3 -11 -2 -17 2 -9 6 -9 10 1 16 14 8 27 -7 16 -18z m-497
-43 c0 -5 -4 -10 -10 -10 -5 0 -10 5 -10 10 0 6 5 10 10 10 6 0 10 -4 10 -10z
m465 -50 c18 -8 17 -9 -7 -9 -16 -1 -28 4 -28 9 0 12 8 12 35 0z m-20 -330
c-20 -22 -45 -27 -45 -7 0 9 -2 9 -8 -1 -11 -17 -82 -29 -82 -13 0 6 8 11 19
11 10 0 34 7 52 15 19 8 45 14 58 15 23 0 24 -1 6 -20z m123 1 c1 -1 -2 -10
-8 -21 -6 -11 -20 -20 -31 -20 -11 0 -29 -5 -39 -10 -31 -17 -37 10 -7 36 23
20 47 24 85 15z m-458 -341 c0 -5 -2 -10 -4 -10 -3 0 -8 5 -11 10 -3 6 -1 10
4 10 6 0 11 -4 11 -10z m512 -30 c6 0 5 -7 -3 -16 -9 -11 -22 -14 -43 -10 -22
4 -27 3 -16 -4 10 -7 11 -10 3 -11 -23 -3 -28 -4 -40 -12 -20 -13 -15 8 7 28
12 11 29 16 45 13 22 -5 23 -3 13 10 -11 13 -10 15 5 9 10 -4 23 -7 29 -7z
m-433 -14 c9 -11 6 -12 -15 -8 -19 3 -22 7 -12 13 16 11 14 11 27 -5z m52 -48
c12 -18 19 -30 14 -26 -4 4 -14 3 -21 -3 -9 -8 -11 -5 -7 10 3 12 0 28 -7 36
-7 8 -10 15 -7 15 3 0 16 -15 28 -32z m348 -16 c-7 -3 -17 -10 -21 -16 -5 -7
-8 -5 -8 5 0 22 9 29 28 21 13 -5 14 -6 1 -10z m-46 -7 c-3 -8 -10 -15 -17
-16 -6 0 -21 -2 -33 -5 -25 -4 -26 -3 -18 19 4 8 21 14 40 15 26 1 33 -2 28
-13z m-303 -82 c-11 -17 -11 -17 -6 0 3 10 6 24 7 30 0 9 2 9 5 0 3 -7 0 -20
-6 -30z m23 -15 c-3 -16 -9 -28 -14 -28 -4 0 -3 14 3 31 12 36 18 35 11 -3z
m-226 -45 c-3 -10 -5 -4 -5 12 0 17 2 24 5 18 2 -7 2 -21 0 -30z m613 18 c0
-4 -7 -8 -15 -8 -16 0 -20 9 -9 20 8 8 24 -1 24 -12z m-515 -41 c3 -5 1 -10
-4 -10 -6 0 -11 5 -11 10 0 6 2 10 4 10 3 0 8 -4 11 -10z m75 -50 c0 -5 -5
-10 -11 -10 -5 0 -7 5 -4 10 3 6 8 10 11 10 2 0 4 -4 4 -10z"/>
<path d="M5135 5895 c-5 -2 -29 -9 -52 -15 -24 -6 -43 -14 -43 -19 0 -4 16
-26 35 -48 26 -31 44 -42 75 -47 66 -10 82 4 78 72 l-3 57 -40 2 c-22 1 -44 0
-50 -2z"/>
<path d="M0 5502 c0 -10 21 -32 32 -32 16 0 8 19 -12 30 -11 6 -20 7 -20 2z"/>
<path d="M60 5491 c0 -5 10 -15 22 -23 20 -14 21 -18 11 -51 -9 -29 -8 -37 1
-37 7 0 22 -11 34 -25 32 -36 41 -24 35 43 -4 44 -11 62 -30 80 -24 21 -73 31
-73 13z"/>
<path d="M295 5420 c3 -5 8 -10 11 -10 2 0 4 5 4 10 0 6 -5 10 -11 10 -5 0 -7
-4 -4 -10z"/>
<path d="M0 5171 c0 -50 4 -72 16 -82 9 -7 13 -21 10 -32 -8 -30 13 -6 39 45
15 29 28 42 39 40 14 -3 16 0 7 17 -16 30 -14 34 17 28 19 -4 29 -2 29 6 0 8
-20 12 -54 13 -34 1 -60 7 -71 18 -10 9 -22 16 -25 16 -4 0 -7 -31 -7 -69z"/>
<path d="M182 5115 c-14 -17 -6 -65 12 -65 6 0 3 -5 -6 -11 -10 -5 -18 -15
-18 -21 0 -18 29 12 46 48 14 30 14 35 1 49 -19 18 -19 18 -35 0z"/>
<path d="M311 4991 c-10 -7 -11 -13 -2 -30 21 -39 40 -21 23 21 -5 11 -12 14
-21 9z"/>
<path d="M0 4976 c0 -9 5 -16 10 -16 6 0 10 4 10 9 0 6 -4 13 -10 16 -5 3 -10
-1 -10 -9z"/>
<path d="M4625 4950 c-3 -5 -1 -10 4 -10 6 0 11 5 11 10 0 6 -2 10 -4 10 -3 0
-8 -4 -11 -10z"/>
<path d="M200 4901 c0 -6 4 -13 10 -16 6 -3 7 1 4 9 -7 18 -14 21 -14 7z"/>
<path d="M0 4653 c0 -57 4 -64 20 -34 7 14 6 29 -5 53 l-14 33 -1 -52z"/>
<path d="M40 4620 c0 -6 7 -10 15 -10 19 0 19 6 0 14 -8 3 -15 1 -15 -4z"/>
<path d="M60 4556 c0 -52 -14 -67 -31 -34 -12 22 -12 22 -20 3 -14 -37 -9 -72
14 -96 12 -14 25 -24 29 -24 3 0 10 -4 15 -9 5 -5 3 -6 -4 -2 -16 9 -16 5 -3
-29 6 -15 15 -23 21 -19 8 4 9 0 4 -15 -3 -11 -2 -21 3 -21 5 0 12 9 15 21 4
14 10 18 18 13 9 -5 10 -2 6 9 -3 9 -1 19 5 23 7 4 6 9 -3 15 -10 6 -8 9 9 9
12 0 22 3 23 8 0 4 2 17 5 30 3 16 -1 22 -15 22 -10 0 -22 7 -25 16 -5 14 -9
14 -23 3 -15 -12 -16 -12 -10 4 4 12 1 17 -11 18 -9 0 -12 3 -6 5 7 3 10 14 7
25 -3 10 0 26 7 34 14 16 5 35 -16 35 -10 0 -14 -12 -14 -44z m-10 -70 c0 -9
-30 -14 -35 -6 -4 6 3 10 14 10 12 0 21 -2 21 -4z"/>
<path d="M15 4411 c-3 -5 -1 -12 5 -16 5 -3 10 1 10 9 0 18 -6 21 -15 7z"/>
<path d="M333 4363 c-20 -8 -15 -23 7 -23 11 0 20 7 20 15 0 15 -6 17 -27 8z"/>
<path d="M13 4328 c-14 -45 -17 -109 -3 -86 9 15 24 118 17 118 -2 0 -8 -15
-14 -32z"/>
<path d="M237 4333 c-10 -17 5 -62 19 -56 8 3 14 10 14 17 -1 17 -27 48 -33
39z"/>
<path d="M2945 4286 c-17 -12 -16 -15 3 -59 24 -54 65 -79 70 -44 6 32 -17 96
-37 106 -13 7 -24 6 -36 -3z"/>
<path d="M194 4270 c-23 -9 -40 -29 -27 -31 47 -8 53 -6 53 17 0 13 -1 24 -2
23 -2 0 -13 -4 -24 -9z"/>
<path d="M260 4255 c-7 -8 -16 -13 -20 -10 -5 3 -7 -3 -6 -12 2 -10 -5 -24
-15 -31 -26 -18 -24 -34 4 -30 17 2 22 9 22 30 -1 20 2 24 12 17 9 -8 14 -4
19 16 8 32 1 41 -16 20z"/>
<path d="M4770 4260 c0 -8 5 -22 10 -30 9 -13 10 -13 10 0 0 8 -5 22 -10 30
-9 13 -10 13 -10 0z"/>
<path d="M3503 4253 c-7 -2 -13 -11 -13 -19 0 -9 -4 -12 -10 -9 -5 3 -10 1
-10 -4 0 -6 7 -11 15 -11 8 0 15 -8 15 -17 1 -16 2 -16 12 2 15 25 22 65 11
64 -4 0 -14 -3 -20 -6z"/>
<path d="M3588 4253 c7 -3 16 -2 19 1 4 3 -2 6 -13 5 -11 0 -14 -3 -6 -6z"/>
<path d="M3428 4180 c-10 -11 -16 -20 -13 -20 7 0 -37 -84 -48 -91 -6 -4 -3
-16 5 -28 18 -26 29 -16 48 42 6 20 16 35 21 31 6 -3 7 5 3 20 -4 19 -2 28 10
32 9 3 16 14 16 23 0 13 -2 13 -9 2 -6 -9 -10 -10 -12 -2 -3 7 -11 3 -21 -9z"/>
<path d="M3536 4125 c-11 -8 -17 -17 -14 -20 2 -3 13 4 23 15 21 23 18 25 -9
5z"/>
<path d="M199 4102 c6 -12 16 -24 22 -28 8 -4 8 -1 0 14 -6 12 -16 24 -22 28
-8 4 -8 1 0 -14z"/>
<path d="M3487 4092 c-24 -27 -21 -36 4 -11 11 11 19 23 16 25 -2 2 -11 -4
-20 -14z"/>
<path d="M5100 4095 c0 -8 4 -15 10 -15 5 0 7 7 4 15 -4 8 -8 15 -10 15 -2 0
-4 -7 -4 -15z"/>
<path d="M4900 4095 c-8 -34 -4 -65 7 -65 16 0 17 -17 1 -22 -7 -3 -5 -7 6
-11 10 -4 15 -3 11 3 -3 6 -1 10 4 10 6 0 11 -16 11 -35 0 -19 5 -35 11 -35 6
0 9 -6 6 -13 -3 -8 -1 -20 4 -28 6 -9 9 9 7 53 -3 58 -6 69 -26 79 -12 7 -26
26 -31 43 -5 17 -10 27 -11 21z"/>
<path d="M20 4069 c0 -25 18 -45 30 -33 7 7 5 16 -10 29 -15 14 -20 15 -20 4z"/>
<path d="M250 4071 c0 -6 8 -7 18 -4 15 6 15 5 3 -10 -12 -15 -12 -17 3 -11 9
4 15 12 13 18 -5 14 -37 21 -37 7z"/>
<path d="M3431 4064 c0 -11 3 -14 6 -6 3 7 2 16 -1 19 -3 4 -6 -2 -5 -13z"/>
<path d="M65 4020 c6 -9 4 -12 -6 -8 -22 9 -39 -15 -24 -35 7 -9 17 -17 22
-17 14 0 22 59 10 67 -6 4 -7 1 -2 -7z"/>
<path d="M3360 4015 c0 -8 4 -15 10 -15 5 0 7 7 4 15 -4 8 -8 15 -10 15 -2 0
-4 -7 -4 -15z"/>
<path d="M3335 4000 c3 -5 8 -10 11 -10 2 0 4 5 4 10 0 6 -5 10 -11 10 -5 0
-7 -4 -4 -10z"/>
<path d="M3531 3994 c0 -11 3 -14 6 -6 3 7 2 16 -1 19 -3 4 -6 -2 -5 -13z"/>
<path d="M4456 3997 c3 -10 9 -15 12 -12 3 3 0 11 -7 18 -10 9 -11 8 -5 -6z"/>
<path d="M4150 3990 c-9 -6 -10 -10 -3 -10 6 0 15 5 18 10 8 12 4 12 -15 0z"/>
<path d="M3320 3984 c0 -6 7 -19 15 -30 8 -10 14 -14 14 -9 0 6 -6 19 -14 29
-8 11 -15 15 -15 10z"/>
<path d="M80 3978 c0 -25 26 -68 48 -77 21 -10 24 -10 15 -1 -6 7 -9 20 -6 29
4 14 3 14 -6 1 -9 -13 -11 -12 -12 5 -1 11 0 25 1 30 1 6 -2 7 -6 3 -4 -4 -13
-3 -21 3 -7 6 -13 9 -13 7z"/>
<path d="M3300 3963 c0 -4 5 -15 10 -23 8 -13 10 -13 10 2 0 9 -4 20 -10 23
-5 3 -10 3 -10 -2z"/>
<path d="M4094 3956 c-17 -13 -17 -17 -6 -37 12 -18 12 -23 1 -30 -10 -6 -7
-8 8 -6 21 1 21 3 8 23 -12 18 -12 23 3 37 21 22 11 31 -14 13z"/>
<path d="M1 3933 c1 -17 3 -21 6 -10 2 9 8 17 12 17 18 0 18 -14 0 -43 -21
-35 -24 -69 -9 -97 6 -10 6 -21 1 -24 -4 -3 -8 -32 -9 -65 l0 -59 28 32 c16
18 28 42 27 56 0 14 2 36 7 50 6 22 5 23 -6 9 -12 -14 -15 -14 -32 3 -11 10
-16 21 -11 25 4 5 10 3 12 -4 6 -17 33 -4 34 16 0 12 2 12 9 -4 8 -20 9 -19 9
1 2 47 -11 83 -27 77 -9 -4 -13 -2 -9 4 7 12 -18 43 -34 43 -5 0 -8 -12 -8
-27z"/>
<path d="M3690 3956 c0 -2 7 -6 15 -10 8 -3 15 -1 15 4 0 6 -7 10 -15 10 -8 0
-15 -2 -15 -4z"/>
<path d="M3822 3910 c0 -19 2 -27 5 -17 2 9 2 25 0 35 -3 9 -5 1 -5 -18z"/>
<path d="M345 3900 c3 -5 8 -10 11 -10 2 0 4 5 4 10 0 6 -5 10 -11 10 -5 0 -7
-4 -4 -10z"/>
<path d="M100 3880 c9 -6 11 -13 5 -17 -14 -11 -17 -33 -4 -33 8 0 8 -5 -1
-15 -16 -20 4 -20 23 0 13 13 16 13 21 -1 9 -24 8 -26 -13 -19 -11 3 -23 0
-27 -6 -5 -9 -2 -10 9 -6 10 3 17 3 17 -1 0 -5 6 -16 13 -25 10 -15 12 -11 12
25 0 50 -11 72 -32 63 -13 -5 -14 -3 -3 11 12 13 11 17 -1 25 -8 5 -18 9 -24
9 -5 0 -3 -5 5 -10z"/>
<path d="M4006 3868 c-23 -32 -20 -53 10 -66 30 -14 64 0 64 26 -1 16 -1 16
-11 0 -13 -23 -55 -23 -63 -2 -4 10 1 25 10 36 10 10 15 21 12 24 -3 3 -13 -5
-22 -18z"/>
<path d="M250 3853 c0 -14 19 -38 25 -32 8 8 -5 39 -16 39 -5 0 -9 -3 -9 -7z"/>
<path d="M3661 3844 c0 -11 3 -14 6 -6 3 7 2 16 -1 19 -3 4 -6 -2 -5 -13z"/>
<path d="M3822 3840 c0 -14 2 -19 5 -12 2 6 2 18 0 25 -3 6 -5 1 -5 -13z"/>
<path d="M4020 3846 c0 -22 26 -26 27 -5 1 11 -5 19 -13 19 -8 0 -14 -6 -14
-14z"/>
<path d="M3030 3847 c0 -3 7 -18 15 -33 11 -21 15 -24 15 -11 0 10 -7 25 -15
33 -8 9 -15 13 -15 11z"/>
<path d="M4951 3834 c0 -11 3 -14 6 -6 3 7 2 16 -1 19 -3 4 -6 -2 -5 -13z"/>
<path d="M4971 3834 c0 -11 3 -14 6 -6 3 7 2 16 -1 19 -3 4 -6 -2 -5 -13z"/>
<path d="M292 3820 c0 -14 2 -19 5 -12 2 6 2 18 0 25 -3 6 -5 1 -5 -13z"/>
<path d="M237 3809 c4 -13 8 -18 11 -10 2 7 -1 18 -6 23 -8 8 -9 4 -5 -13z"/>
<path d="M170 3770 c0 -27 4 -50 9 -50 16 0 22 18 9 23 -7 2 -10 8 -6 12 10
11 28 -4 28 -25 0 -10 6 -21 13 -24 6 -3 2 -3 -11 0 -21 5 -22 4 -10 -15 7
-12 16 -21 19 -21 13 0 18 44 7 57 -6 8 -8 16 -4 20 3 3 6 0 6 -8 1 -10 4 -8
11 4 14 24 -3 46 -23 29 -19 -16 -42 2 -35 27 3 12 1 21 -4 21 -5 0 -9 -22 -9
-50z"/>
<path d="M267 3793 c-4 -3 -7 -11 -7 -17 0 -6 5 -5 12 2 6 6 9 14 7 17 -3 3
-9 2 -12 -2z"/>
<path d="M3222 3731 c-18 -38 -32 -82 -33 -97 0 -16 -4 -38 -8 -49 -5 -11 -4
-30 0 -43 6 -15 5 -21 -1 -17 -6 3 -10 1 -10 -4 0 -6 3 -11 8 -11 4 0 7 -16 7
-35 0 -31 -2 -33 -12 -18 -7 9 -13 13 -13 7 0 -5 -4 -2 -9 5 -6 9 -6 22 0 33
8 14 6 16 -7 11 -10 -3 -15 -2 -12 3 3 5 2 18 -3 29 -7 18 -8 18 -8 2 -1 -10
-5 -16 -10 -12 -5 3 -13 1 -16 -5 -8 -13 24 -120 36 -120 5 0 9 -20 9 -44 0
-24 7 -60 15 -79 13 -30 13 -35 1 -31 -8 3 -17 1 -21 -5 -3 -6 -2 -11 2 -11 5
0 8 -17 9 -37 0 -23 7 -47 19 -61 30 -34 44 -83 32 -107 -19 -36 -50 -55 -85
-51 -24 3 -35 -1 -43 -15 -7 -14 -6 -19 4 -19 8 0 17 3 21 7 10 10 37 13 31 3
-3 -4 2 -13 9 -19 11 -9 16 -9 22 0 4 8 11 0 19 -22 6 -19 8 -38 4 -44 -24
-36 -7 -119 27 -132 8 -3 14 -16 14 -29 0 -20 -4 -24 -24 -20 -18 3 -23 1 -20
-9 3 -7 0 -16 -6 -20 -8 -5 -6 -11 6 -20 15 -10 16 -17 6 -41 -7 -16 -14 -48
-16 -72 -2 -27 -10 -48 -22 -56 -16 -12 -22 -11 -46 9 -28 24 -121 62 -223 90
-76 22 -103 25 -195 25 -120 -1 -165 -24 -139 -72 11 -21 12 -21 26 5 7 15 18
27 24 27 22 0 44 -36 42 -70 -3 -52 -30 -209 -44 -255 -8 -24 -13 -99 -13
-190 0 -232 19 -263 171 -275 109 -9 294 -73 286 -99 -4 -12 -2 -13 4 -3 6 8
24 10 53 7 56 -7 60 -10 60 -48 l1 -32 15 28 c19 34 59 37 68 5 8 -33 7 -45
-3 -29 -6 10 -8 0 -4 -29 4 -31 3 -41 -5 -36 -9 5 -11 -18 -7 -86 3 -63 1 -83
-5 -63 l-8 30 1 -34 c2 -37 22 -53 30 -24 4 17 5 17 6 1 0 -10 6 -18 11 -18 6
0 10 6 9 13 -4 34 4 49 11 17 4 -19 5 15 2 75 -2 61 -2 107 1 104 10 -9 15
-49 16 -122 1 -48 5 -66 14 -65 6 2 16 12 21 23 8 17 11 13 16 -25 l7 -45 3
50 c2 45 3 47 10 20 7 -27 8 -27 9 -6 1 34 12 20 13 -18 2 -63 18 -40 19 26 1
107 15 122 24 26 4 -52 12 -83 20 -87 22 -8 26 5 22 78 -3 39 -2 53 1 31 l6
-40 6 50 7 50 2 -65 c3 -68 18 -138 20 -92 1 26 21 30 22 5 0 -12 2 -13 6 -5
3 7 1 18 -5 25 -5 7 -6 31 -2 57 4 25 9 41 10 35 1 -5 6 6 10 25 6 30 8 26 10
-30 2 -58 3 -61 10 -30 5 19 6 38 3 43 -3 5 3 7 13 5 16 -2 20 5 25 47 l6 50
2 -45 c2 -25 6 -56 10 -70 7 -24 7 -24 19 -5 12 19 13 18 7 -5 l-6 -25 14 24
c10 17 16 20 19 10 3 -8 6 10 6 40 1 29 3 55 5 58 8 8 18 -163 12 -205 -4 -28
-2 -42 5 -42 7 0 9 -8 5 -20 -4 -12 -2 -20 6 -20 9 0 10 16 6 60 -4 33 -3 60
2 60 5 0 12 44 17 98 8 95 8 96 14 42 4 -35 3 -58 -4 -62 -7 -5 -4 -8 7 -8 9
0 17 7 17 15 0 8 6 15 14 15 10 0 16 13 19 38 l4 37 3 -40 3 -40 7 45 7 45 2
-60 c2 -44 5 -55 11 -40 7 17 9 14 9 -13 1 -18 5 -31 11 -27 5 3 6 13 3 22 -4
11 -3 14 5 9 9 -5 13 13 14 66 2 72 2 72 7 18 l5 -55 7 60 6 60 0 -78 c0 -42
3 -80 6 -84 4 -3 7 3 7 15 0 12 5 22 11 22 6 0 9 7 5 15 -3 9 0 15 9 15 9 0
15 14 18 43 3 36 4 34 6 -18 2 -47 5 -54 11 -35 4 14 8 19 9 13 1 -7 8 -13 16
-13 8 0 15 -6 16 -12 0 -7 4 -3 9 10 5 12 7 28 4 36 -3 8 -1 23 5 33 8 14 11
5 12 -42 l2 -60 7 60 c6 61 14 59 25 -7 10 -61 22 -44 32 45 l10 82 3 -100 4
-100 6 95 c5 81 6 86 8 33 2 -56 4 -63 23 -63 11 0 17 5 14 10 -3 6 -1 10 4
10 6 0 12 23 13 53 l1 52 7 -65 7 -65 3 70 4 70 6 -70 c4 -42 7 -56 9 -35 2
29 4 32 11 15 5 -11 9 -18 9 -15 1 3 8 23 16 45 l14 40 2 -95 3 -95 6 95 c4
63 7 78 8 43 1 -29 4 -53 7 -53 18 0 48 49 55 88 5 32 8 38 9 19 0 -16 5 -26
11 -22 6 4 10 -6 10 -23 0 -43 26 -36 40 12 7 23 14 46 15 51 2 6 4 -8 5 -30
1 -22 4 -32 7 -22 4 17 6 17 23 -3 18 -21 30 -16 43 20 3 8 7 -7 8 -35 l2 -50
7 55 c6 51 7 52 9 15 2 -32 4 -36 11 -20 7 17 9 17 9 3 1 -10 5 -18 10 -18 12
0 23 50 21 92 -1 18 -1 42 0 53 1 18 3 17 12 -5 13 -30 15 -36 17 -55 2 -24
25 -13 32 15 6 22 7 22 8 -8 1 -19 5 -31 11 -27 6 3 10 -2 11 -12 0 -10 3 -13
6 -5 2 6 10 12 18 12 7 0 15 16 18 35 6 38 -2 108 -12 103 -46 -24 -62 -30
-68 -24 -9 8 68 87 79 80 4 -3 8 3 8 12 0 10 3 15 6 12 3 -3 16 4 30 17 21 19
91 39 102 29 2 -1 -12 -13 -32 -26 -22 -14 -36 -31 -35 -43 l0 -20 9 20 c8 19
9 18 9 -4 l1 -24 25 23 c14 13 25 29 25 37 0 18 16 17 24 -2 3 -8 15 -15 26
-15 19 0 21 4 15 30 -3 16 -2 37 4 47 6 10 11 13 11 7 0 -6 6 -11 13 -11 6 0
24 -3 38 -6 33 -7 83 17 99 48 11 20 18 23 39 18 14 -3 23 -2 19 2 -4 4 4 18
18 32 13 13 24 30 24 38 0 7 4 15 8 17 17 6 76 142 64 146 -7 2 -12 10 -12 18
0 8 -3 13 -7 13 -5 -1 -12 0 -18 1 -11 3 -41 5 -101 8 -29 1 -50 10 -69 28
-19 18 -51 31 -93 40 -35 7 -69 18 -76 23 -14 12 -163 43 -233 49 -59 4 -73
22 -18 22 33 0 35 2 25 21 -9 16 -17 19 -43 13 -32 -6 -87 -33 -97 -46 -3 -3
-41 -9 -85 -12 -44 -2 -129 -10 -189 -15 -102 -10 -112 -10 -151 9 -23 11 -62
20 -88 20 -26 0 -47 5 -47 10 0 6 -5 10 -11 10 -5 0 -7 -4 -4 -10 4 -6 -8 -10
-29 -10 -20 0 -36 5 -36 10 0 6 -11 10 -25 10 -14 0 -25 5 -25 10 0 6 16 10
35 10 24 0 35 5 35 15 0 11 13 15 53 17 28 1 61 3 72 4 11 1 55 2 98 3 70 1
77 3 77 21 0 25 -16 26 -29 3 -9 -16 -10 -15 -11 5 0 13 -4 20 -10 17 -6 -4
-10 20 -10 64 0 39 -3 71 -7 71 -5 0 -7 -30 -6 -67 1 -48 0 -61 -7 -43 -7 22
-8 19 -10 -20 -2 -25 -5 -35 -7 -22 -4 18 -11 22 -38 22 -24 0 -35 -5 -38 -17
-4 -16 -5 -16 -6 -1 0 9 -10 19 -20 23 -13 4 -21 17 -24 38 -2 20 -4 12 -6
-23 -1 -34 -4 -50 -10 -42 -4 8 -11 13 -15 13 -21 -3 -26 1 -27 22 -1 20 -2
20 -6 2 -9 -37 -52 -42 -54 -6 0 10 -2 11 -6 4 -3 -10 -9 -8 -21 4 -16 15 -17
15 -23 -13 -4 -18 -7 3 -9 56 -2 78 -3 81 -11 41 -9 -47 -19 -64 -26 -44 -6
16 -33 -10 -49 -46 -12 -26 -12 -26 -19 14 -5 31 -11 41 -26 41 -15 0 -19 -8
-19 -38 0 -46 -24 -43 -35 5 -4 18 -9 26 -12 19 -6 -15 -23 -6 -23 14 0 8 8
14 18 14 16 1 16 1 0 11 -22 12 -23 29 -3 29 8 0 15 5 15 10 0 6 -13 10 -30
10 -27 0 -30 -3 -29 -32 0 -28 2 -30 9 -13 7 16 9 12 9 -20 1 -22 4 -51 6 -65
5 -22 4 -22 -4 -5 -7 15 -10 16 -11 5 -4 -25 -18 42 -19 88 -1 26 -5 41 -11
37 -5 -3 -10 -1 -10 4 0 6 5 11 10 11 6 0 10 5 10 10 0 6 -8 10 -18 10 -17 0
-18 -7 -14 -74 2 -43 0 -82 -7 -93 -8 -14 -10 -7 -6 32 3 33 2 42 -3 25 -6
-18 -10 0 -17 70 -4 52 -9 118 -10 145 0 28 -2 66 -3 85 -3 33 -3 34 -17 16
-8 -11 -17 -18 -19 -15 -7 7 13 49 24 49 5 0 10 12 10 28 0 19 -3 23 -9 13 -7
-11 -9 -11 -13 0 -8 22 -15 8 -22 -43 -4 -28 -2 -49 4 -53 11 -7 10 -124 -2
-131 -4 -3 -7 23 -7 57 0 34 -3 65 -9 71 -5 5 -5 29 -1 56 11 65 11 84 -1 77
-5 -3 -7 -12 -3 -20 3 -8 0 -15 -7 -15 -9 0 -11 13 -6 49 4 30 2 52 -4 56 -5
3 -10 17 -10 31 0 13 -4 24 -9 24 -8 0 -9 -119 -2 -145 8 -27 0 -65 -14 -65
-17 0 -20 17 -5 22 7 2 6 28 -5 76 -17 85 -19 116 -5 107 6 -4 9 19 8 62 l-2
68 -4 -60 -4 -60 -14 35 -13 35 4 -40 c5 -38 4 -38 -5 -10 -6 17 -8 38 -6 47
2 10 0 21 -5 24 -5 3 -9 -10 -9 -28 0 -35 -19 -78 -21 -48 -3 45 -7 62 -17 72
-9 9 -12 -5 -12 -61 0 -52 3 -70 11 -65 8 5 10 0 6 -17 -4 -13 -9 -35 -12 -49
-6 -25 -5 -25 5 -2 5 13 15 20 21 16 8 -4 9 1 4 16 -5 15 -4 20 4 16 17 -11
13 10 -4 24 -8 7 -15 17 -15 23 0 6 3 7 7 3 4 -3 13 4 20 16 12 22 12 22 14 3
1 -11 1 -24 0 -28 -1 -5 4 -5 10 -1 7 4 9 0 5 -15 -3 -11 -9 -31 -12 -42 -3
-12 -2 -19 3 -16 5 3 10 -8 11 -24 2 -19 -2 -28 -8 -24 -5 3 -10 15 -10 26 0
10 -5 19 -11 19 -7 0 -9 -10 -5 -26 5 -18 3 -24 -5 -19 -7 5 -9 1 -6 -11 15
-50 19 -94 8 -94 -6 0 -11 -8 -11 -17 0 -14 2 -15 9 -4 6 10 11 1 16 -28 4
-22 10 -39 14 -36 4 2 4 -17 0 -43 -4 -26 -8 -56 -8 -66 -1 -35 -14 -7 -16 35
-1 25 1 36 6 27 6 -9 9 -7 9 9 0 13 -3 22 -8 20 -9 -3 -11 13 -4 31 2 7 2 16
-2 19 -3 4 -6 -2 -7 -13 -1 -30 -48 187 -49 225 0 26 -3 32 -16 27 -10 -4 -13
-2 -7 6 9 16 13 39 18 103 3 34 2 42 -4 25 -5 -18 -9 -1 -15 65 -10 136 -10
404 2 418 8 11 26 107 19 107 -2 0 -18 -31 -35 -69z m-52 -326 c0 -8 -4 -15
-10 -15 -5 0 -10 7 -10 15 0 8 5 15 10 15 6 0 10 -7 10 -15z m24 -207 c-3 -5
-10 -6 -15 -3 -5 4 -9 1 -9 -6 0 -7 -3 -10 -6 -6 -9 9 3 24 20 24 8 0 13 -4
10 -9z m53 -170 c-3 -8 -6 -5 -6 6 -1 11 2 17 5 13 3 -3 4 -12 1 -19z m160
-10 c-3 -8 -6 -5 -6 6 -1 11 2 17 5 13 3 -3 4 -12 1 -19z m-50 -91 c-4 -18 -5
-17 -6 6 0 16 -5 26 -11 22 -11 -7 -14 8 -3 19 11 10 25 -22 20 -47z m60 11
c-3 -8 -6 -5 -6 6 -1 11 2 17 5 13 3 -3 4 -12 1 -19z m-12 -60 c4 -18 1 -44
-5 -58 -9 -22 -10 -21 -6 14 3 21 1 47 -5 57 -6 13 -6 19 0 19 6 0 13 -15 16
-32z m-202 -23 c-3 -9 -8 -14 -10 -11 -3 3 -2 9 2 15 9 16 15 13 8 -4z m213
-123 c-13 -12 -18 9 -10 45 l8 38 4 -39 c2 -21 1 -41 -2 -44z m10 -58 c-4 -20
-10 -34 -13 -30 -3 3 -2 21 1 42 4 20 10 34 13 30 3 -3 2 -21 -1 -42z m54 5
c0 -24 -4 -38 -10 -34 -17 10 -11 75 7 75 2 0 3 -18 3 -41z m-287 -14 c-3 -9
-8 -14 -10 -11 -3 3 -2 9 2 15 9 16 15 13 8 -4z m-388 -95 c3 -5 11 -7 19 -4
7 3 34 0 60 -6 87 -19 217 -90 165 -90 -5 0 -7 5 -4 10 11 18 -59 1 -72 -17
-35 -46 -5 -87 92 -129 22 -9 58 -25 80 -35 40 -19 157 -63 207 -79 35 -11
117 -58 146 -84 13 -12 24 -19 25 -17 1 2 21 -5 45 -16 23 -10 40 -21 38 -24
-3 -3 4 -6 16 -6 12 -1 25 -6 31 -12 18 -18 -3 -30 -46 -26 -59 5 -187 33
-201 43 -12 9 -92 34 -117 37 -23 2 -111 47 -124 63 -6 7 -21 14 -35 15 -14 1
-33 10 -42 19 -10 10 -25 18 -33 18 -8 0 -15 5 -15 10 0 6 -13 10 -29 10 -23
0 -30 6 -36 28 -4 15 -10 21 -12 15 -8 -22 -44 -14 -70 14 -14 14 -44 67 -68
118 -24 50 -50 97 -59 104 -21 18 -21 42 1 34 11 -4 14 -3 9 5 -4 7 -1 12 8
12 8 0 17 -4 21 -10z m1015 -30 c0 -11 -2 -20 -4 -20 -2 0 -6 9 -9 20 -3 11
-1 20 4 20 5 0 9 -9 9 -20z m-501 -120 c15 4 46 5 67 1 22 -4 59 -6 84 -5 66
4 135 -7 119 -17 -10 -6 -11 -9 -1 -9 7 0 12 -14 12 -35 0 -34 1 -35 40 -35
22 0 40 5 40 11 0 5 5 7 12 3 9 -6 9 -9 0 -12 -7 -2 -12 -10 -12 -18 0 -10
-12 -14 -40 -14 -29 0 -40 -4 -40 -15 0 -12 -13 -15 -57 -15 -76 0 -200 23
-239 43 -18 9 -53 21 -80 27 -65 15 -80 36 -45 65 34 29 50 34 84 24 15 -4 40
-4 56 1z m414 -187 c-7 -2 -21 -2 -30 0 -10 3 -4 5 12 5 17 0 24 -2 18 -5z
m574 -590 c-3 -10 -5 -2 -5 17 0 19 2 27 5 18 2 -10 2 -26 0 -35z m-230 -25
c-3 -7 -5 -2 -5 12 0 14 2 19 5 13 2 -7 2 -19 0 -25z m-20 -10 c-3 -7 -5 -2
-5 12 0 14 2 19 5 13 2 -7 2 -19 0 -25z m-580 -60 c-3 -8 -6 -5 -6 6 -1 11 2
17 5 13 3 -3 4 -12 1 -19z m160 -10 c-3 -8 -6 -5 -6 6 -1 11 2 17 5 13 3 -3 4
-12 1 -19z m-218 -30 c1 -5 -3 -8 -9 -8 -5 0 -10 12 -9 28 0 24 1 25 9 7 5
-11 9 -23 9 -27z"/>
<path d="M79 3785 c-1 -3 -2 -8 -3 -12 -1 -5 -5 -14 -9 -20 -5 -8 -4 -13 2
-13 6 0 11 3 12 8 0 4 2 15 4 25 3 15 -3 26 -6 12z"/>
<path d="M3151 3704 c0 -11 3 -14 6 -6 3 7 2 16 -1 19 -3 4 -6 -2 -5 -13z"/>
<path d="M296 3684 c-5 -18 -12 -24 -22 -20 -10 4 -14 1 -12 -6 4 -12 8 -14
44 -17 8 0 12 -5 9 -11 -3 -5 -1 -10 4 -10 6 0 11 7 11 15 0 10 11 15 33 16
17 1 25 3 16 6 -10 2 -19 13 -22 24 -3 10 -11 19 -19 19 -10 0 -10 -3 2 -11
12 -9 12 -10 -3 -5 -10 3 -21 6 -23 6 -3 0 -2 5 1 10 3 6 2 10 -3 10 -6 0 -13
-12 -16 -26z"/>
<path d="M3897 3695 c-4 -8 -2 -17 3 -20 6 -4 10 3 10 14 0 25 -6 27 -13 6z"/>
<path d="M5010 3666 c-11 -26 -20 -54 -20 -63 0 -8 -12 -35 -27 -60 -25 -43
-37 -84 -49 -166 -3 -21 -9 -49 -14 -62 -5 -12 -6 -32 -3 -43 2 -11 0 -29 -6
-41 -9 -16 -9 -21 1 -21 10 0 10 -2 -1 -9 -8 -6 -12 -19 -9 -35 3 -15 1 -29
-3 -32 -5 -3 -9 11 -9 30 0 19 -5 38 -11 42 -6 3 -9 15 -6 25 3 11 1 19 -5 19
-5 0 -7 -18 -2 -45 4 -30 3 -45 -5 -45 -6 0 -11 -10 -12 -22 0 -22 -1 -22 -9
-3 -5 12 -6 -6 -3 -45 3 -47 2 -61 -6 -50 -8 11 -9 0 -6 -40 4 -43 3 -49 -5
-30 -8 20 -9 17 -5 -20 3 -34 2 -40 -6 -25 -7 15 -8 5 -5 -35 4 -45 3 -50 -5
-25 -5 17 -7 50 -4 75 6 41 4 46 -14 47 -13 1 -21 -4 -21 -15 0 -23 -17 -2
-23 28 -3 14 -2 -5 0 -42 4 -40 2 -68 -4 -68 -5 0 -8 -17 -6 -37 2 -34 1 -35
-5 -9 -4 17 -10 29 -14 28 -5 -1 -12 -2 -18 -2 -5 0 -7 -7 -4 -15 4 -10 0 -15
-11 -15 -9 0 -13 -5 -10 -10 4 -6 11 -8 16 -5 5 4 9 2 9 -4 0 -5 -4 -13 -10
-16 -16 -10 -12 -45 5 -45 11 0 15 11 16 38 0 30 2 33 9 17 17 -40 12 -62 -17
-68 -16 -3 -31 0 -35 6 -5 7 -8 3 -8 -11 0 -15 4 -21 11 -16 9 5 10 -1 5 -22
-4 -16 -12 -30 -17 -32 -5 -2 -9 -10 -9 -18 0 -9 5 -12 12 -8 7 4 8 3 4 -5 -4
-6 -2 -18 4 -26 10 -12 9 -15 -8 -15 -11 0 -23 -6 -25 -12 -4 -9 -6 -7 -6 3
-1 9 -7 16 -13 16 -7 0 -20 2 -28 4 -11 3 -17 -8 -21 -41 l-6 -45 -3 40 -3 40
-7 -45 c-5 -30 -7 -36 -8 -17 -1 17 -8 27 -17 27 -8 0 -15 5 -15 11 0 6 7 9
15 5 11 -4 15 2 14 22 -1 17 -3 20 -6 10 -2 -10 -9 -18 -15 -18 -5 0 -8 6 -5
13 3 8 -3 14 -14 14 -21 2 -23 -13 -13 -89 5 -38 9 -45 25 -41 12 3 19 0 20
-8 0 -8 4 -5 9 6 6 13 9 15 9 5 1 -11 3 -12 9 -3 4 7 26 14 47 16 22 1 45 6
50 9 13 8 88 23 99 19 18 -5 106 21 106 31 0 10 63 5 115 -8 16 -4 17 -3 5 5
-8 6 -10 11 -5 12 6 1 15 2 20 3 11 1 63 34 81 51 13 13 44 77 49 102 2 10 4
20 5 23 0 3 7 13 14 23 13 17 35 22 134 31 23 2 46 7 50 11 7 8 -123 1 -168
-9 -60 -13 -111 -29 -116 -37 -3 -5 -12 -9 -21 -9 -9 0 -27 -10 -40 -22 -13
-12 -23 -16 -23 -10 0 6 5 14 10 17 6 3 10 18 10 32 0 22 -4 25 -25 21 -19 -4
-25 -1 -25 13 0 11 5 19 11 19 8 0 8 5 -1 15 -10 11 -10 18 -1 29 7 8 9 25 5
41 l-7 28 -14 -24 -13 -24 6 27 c4 20 2 29 -10 34 -25 9 -20 29 23 90 37 54
39 60 36 118 -3 47 -2 56 6 37 5 -14 7 -32 4 -40 -3 -10 1 -9 11 4 16 20 16
20 9 -2 -4 -14 -2 -23 4 -23 6 0 11 8 12 18 0 9 1 34 3 55 2 21 0 33 -4 27
-10 -16 -27 8 -35 50 -5 28 -2 40 15 58 17 18 22 37 23 83 2 46 6 63 20 70 18
11 24 49 7 49 -15 0 -12 24 10 87 24 70 18 83 -10 19z m-44 -453 c-10 -10 -19
5 -10 18 6 11 8 11 12 0 2 -7 1 -15 -2 -18z m-129 -165 c-3 -8 -6 -5 -6 6 -1
11 2 17 5 13 3 -3 4 -12 1 -19z m-63 -223 c5 -22 4 -26 -4 -15 -5 8 -10 24
-10 34 0 26 6 18 14 -19z m-17 -57 c-3 -7 -5 -2 -5 12 0 14 2 19 5 13 2 -7 2
-19 0 -25z m180 10 c-3 -8 -6 -5 -6 6 -1 11 2 17 5 13 3 -3 4 -12 1 -19z
m-190 -80 c-3 -7 -5 -2 -5 12 0 14 2 19 5 13 2 -7 2 -19 0 -25z m3 -78 c0 -5
-4 -10 -10 -10 -5 0 -10 5 -10 10 0 6 5 10 10 10 6 0 10 -4 10 -10z m-61 -27
c0 -11 -3 -13 -6 -5 -2 6 -9 10 -14 6 -5 -3 -9 0 -9 5 0 6 7 11 15 11 8 0 15
-8 14 -17z m-92 -55 c-3 -8 -6 -5 -6 6 -1 11 2 17 5 13 3 -3 4 -12 1 -19z"/>
<path d="M4820 3684 c0 -12 -2 -43 -5 -70 -3 -38 -2 -42 4 -19 l9 30 1 -30 c2
-42 12 -75 22 -75 5 0 6 25 3 56 -8 61 -33 143 -34 108z"/>
<path d="M236 3655 c-3 -8 -1 -15 4 -15 6 0 10 7 10 15 0 8 -2 15 -4 15 -2 0
-6 -7 -10 -15z"/>
<path d="M3402 3650 c0 -14 2 -19 5 -12 2 6 2 18 0 25 -3 6 -5 1 -5 -13z"/>
<path d="M192 3640 c-7 -12 -8 -20 -2 -20 5 0 10 5 10 11 0 5 5 7 10 4 6 -3
10 1 10 9 0 22 -13 20 -28 -4z"/>
<path d="M3064 3633 c4 -16 8 -35 9 -43 2 -16 21 -40 32 -40 4 0 4 8 0 18 -12
30 -13 47 -1 54 8 5 7 8 -1 8 -7 0 -13 7 -13 15 0 8 -7 15 -16 15 -13 0 -15
-6 -10 -27z"/>
<path d="M3893 3625 c0 -22 2 -30 4 -17 2 12 2 30 0 40 -3 9 -5 -1 -4 -23z"/>
<path d="M2980 3629 c0 -11 4 -18 10 -14 5 3 7 12 3 20 -7 21 -13 19 -13 -6z"/>
<path d="M3420 3640 c0 -5 5 -10 11 -10 5 0 7 5 4 10 -3 6 -8 10 -11 10 -2 0
-4 -4 -4 -10z"/>
<path d="M4788 3598 c-3 -24 -1 -52 3 -63 5 -13 8 2 8 43 1 71 -5 82 -11 20z"/>
<path d="M56 3614 c-24 -24 -19 -30 7 -8 12 10 24 20 26 21 2 2 -1 3 -7 3 -6
0 -18 -7 -26 -16z"/>
<path d="M210 3600 c0 -5 5 -10 10 -10 6 0 10 5 10 10 0 6 -4 10 -10 10 -5 0
-10 -4 -10 -10z"/>
<path d="M3146 3595 c-9 -26 -7 -32 5 -12 6 10 9 21 6 23 -2 3 -7 -2 -11 -11z"/>
<path d="M2991 3584 c0 -11 3 -14 6 -6 3 7 2 16 -1 19 -3 4 -6 -2 -5 -13z"/>
<path d="M3023 3581 c2 -26 37 -40 37 -15 0 8 -6 14 -14 14 -8 0 -17 6 -20 13
-3 6 -4 1 -3 -12z"/>
<path d="M3242 3570 c0 -19 2 -27 5 -17 2 9 2 25 0 35 -3 9 -5 1 -5 -18z"/>
<path d="M2920 3580 c0 -6 -5 -8 -11 -4 -7 4 -10 1 -7 -6 2 -8 10 -16 18 -18
7 -3 10 0 6 6 -3 6 -1 12 6 14 9 3 9 6 0 12 -7 4 -12 2 -12 -4z"/>
<path d="M3882 3560 c0 -14 2 -19 5 -12 2 6 2 18 0 25 -3 6 -5 1 -5 -13z"/>
<path d="M3691 3554 c0 -11 3 -14 6 -6 3 7 2 16 -1 19 -3 4 -6 -2 -5 -13z"/>
<path d="M2921 3504 c0 -11 3 -14 6 -6 3 7 2 16 -1 19 -3 4 -6 -2 -5 -13z"/>
<path d="M3532 3500 c0 -14 2 -19 5 -12 2 6 2 18 0 25 -3 6 -5 1 -5 -13z"/>
<path d="M4841 3460 c2 -58 10 -68 26 -34 7 15 8 24 1 24 -6 0 -8 13 -6 30 3
20 0 30 -9 30 -9 0 -12 -15 -12 -50z"/>
<path d="M4999 3467 c-3 -21 -2 -40 2 -43 12 -7 15 9 9 46 l-6 35 -5 -38z"/>
<path d="M2935 3460 c-3 -5 -1 -18 4 -27 9 -16 10 -14 11 10 0 28 -5 34 -15
17z"/>
<path d="M3340 3426 c0 -36 13 -55 25 -36 4 6 2 17 -5 24 -6 8 -7 16 -1 18 5
1 3 9 -5 16 -12 11 -14 7 -14 -22z"/>
<path d="M3395 3420 c-3 -5 -1 -10 4 -10 6 0 11 5 11 10 0 6 -2 10 -4 10 -3 0
-8 -4 -11 -10z"/>
<path d="M5065 3409 c-4 -6 -5 -12 -2 -15 2 -3 7 2 10 11 7 17 1 20 -8 4z"/>
<path d="M3950 3396 c0 -8 -7 -16 -15 -20 -21 -8 -19 -52 3 -62 36 -16 62 2
62 44 0 14 -6 22 -17 22 -15 0 -16 -2 -3 -10 12 -7 12 -13 4 -27 -17 -27 -49
-23 -51 7 -1 14 0 18 3 8 6 -19 34 -25 34 -8 0 6 -5 10 -10 10 -6 0 -8 11 -4
25 3 14 3 25 0 25 -3 0 -6 -6 -6 -14z"/>
<path d="M3242 3380 c0 -14 2 -19 5 -12 2 6 2 18 0 25 -3 6 -5 1 -5 -13z"/>
<path d="M4840 3366 c0 -9 5 -16 10 -16 6 0 10 4 10 9 0 6 -4 13 -10 16 -5 3
-10 -1 -10 -9z"/>
<path d="M3371 3354 c0 -11 3 -14 6 -6 3 7 2 16 -1 19 -3 4 -6 -2 -5 -13z"/>
<path d="M5056 3344 c-4 -14 -5 -29 -2 -31 3 -3 8 7 12 21 3 15 4 29 1 32 -2
3 -8 -7 -11 -22z"/>
<path d="M3116 3333 c9 -38 14 -42 14 -10 0 14 -5 29 -10 32 -7 4 -8 -3 -4
-22z"/>
<path d="M4965 3340 c-3 -5 -1 -10 4 -10 6 0 11 5 11 10 0 6 -2 10 -4 10 -3 0
-8 -4 -11 -10z"/>
<path d="M4812 3320 c0 -14 2 -19 5 -12 2 6 2 18 0 25 -3 6 -5 1 -5 -13z"/>
<path d="M4857 3334 c-4 -4 -8 -19 -8 -33 -1 -25 -2 -24 -8 4 l-7 30 -6 -27
c-3 -16 -2 -28 1 -29 3 0 14 -2 24 -4 10 -2 20 2 23 9 6 16 -10 59 -19 50z"/>
<path d="M3311 3314 c0 -11 3 -14 6 -6 3 7 2 16 -1 19 -3 4 -6 -2 -5 -13z"/>
<path d="M4966 3303 c-6 -14 -5 -15 5 -6 7 7 10 15 7 18 -3 3 -9 -2 -12 -12z"/>
<path d="M5005 3293 c12 -18 13 -26 3 -42 -7 -11 -9 -24 -5 -28 12 -11 27 18
27 50 0 19 -4 26 -12 21 -7 -5 -9 -2 -6 8 4 9 0 15 -8 15 -12 0 -12 -4 1 -24z"/>
<path d="M3330 3290 c-9 -16 -8 -18 5 -14 8 4 15 12 15 20 0 20 -7 17 -20 -6z"/>
<path d="M3270 3285 c-7 -9 -10 -18 -6 -22 3 -3 6 -1 6 6 0 7 5 9 10 6 6 -3
10 1 10 9 0 20 -4 20 -20 1z"/>
<path d="M4974 3277 c-4 -7 -4 -9 1 -5 4 4 14 3 22 -3 8 -7 13 -8 13 -1 0 15
-28 23 -36 9z"/>
<path d="M4331 3254 c0 -11 3 -14 6 -6 3 7 2 16 -1 19 -3 4 -6 -2 -5 -13z"/>
<path d="M5161 3244 c0 -11 3 -14 6 -6 3 7 2 16 -1 19 -3 4 -6 -2 -5 -13z"/>
<path d="M3822 3230 c0 -14 2 -19 5 -12 2 6 2 18 0 25 -3 6 -5 1 -5 -13z"/>
<path d="M3662 3220 c0 -14 2 -19 5 -12 2 6 2 18 0 25 -3 6 -5 1 -5 -13z"/>
<path d="M3853 3170 c0 -41 2 -58 4 -37 2 20 2 54 0 75 -2 20 -4 3 -4 -38z"/>
<path d="M4492 3190 c0 -14 2 -19 5 -12 2 6 2 18 0 25 -3 6 -5 1 -5 -13z"/>
<path d="M4653 3160 c0 -25 2 -35 4 -22 2 12 2 32 0 45 -2 12 -4 2 -4 -23z"/>
<path d="M3459 3087 c-1 -4 -1 -16 -1 -27 0 -60 2 -69 17 -64 8 4 15 10 15 16
0 5 -4 7 -9 4 -5 -3 -9 10 -9 30 0 30 -10 61 -13 41z"/>
<path d="M3502 3065 c0 -16 2 -22 5 -12 2 9 2 23 0 30 -3 6 -5 -1 -5 -18z"/>
<path d="M4012 3060 c0 -19 2 -27 5 -17 2 9 2 25 0 35 -3 9 -5 1 -5 -18z"/>
<path d="M4561 3044 c0 -11 3 -14 6 -6 3 7 2 16 -1 19 -3 4 -6 -2 -5 -13z"/>
<path d="M3291 3024 c0 -11 3 -14 6 -6 3 7 2 16 -1 19 -3 4 -6 -2 -5 -13z"/>
<path d="M3520 3031 c0 -6 5 -13 10 -16 6 -3 10 1 10 9 0 9 -4 16 -10 16 -5 0
-10 -4 -10 -9z"/>
<path d="M5082 3010 c0 -19 2 -27 5 -17 2 9 2 25 0 35 -3 9 -5 1 -5 -18z"/>
<path d="M4781 3014 c0 -11 3 -14 6 -6 3 7 2 16 -1 19 -3 4 -6 -2 -5 -13z"/>
<path d="M2893 2970 c0 -25 2 -35 4 -22 2 12 2 32 0 45 -2 12 -4 2 -4 -23z"/>
<path d="M4012 2980 c0 -19 2 -27 5 -17 2 9 2 25 0 35 -3 9 -5 1 -5 -18z"/>
<path d="M3520 2985 c0 -8 5 -15 10 -15 6 0 10 7 10 15 0 8 -4 15 -10 15 -5 0
-10 -7 -10 -15z"/>
<path d="M3841 2984 c0 -11 3 -14 6 -6 3 7 2 16 -1 19 -3 4 -6 -2 -5 -13z"/>
<path d="M3281 2964 c0 -11 3 -14 6 -6 3 7 2 16 -1 19 -3 4 -6 -2 -5 -13z"/>
<path d="M4668 2968 c-5 -11 -2 -15 10 -14 9 2 18 9 20 17 3 12 2 12 -6 0 -8
-11 -10 -11 -14 0 -3 10 -6 9 -10 -3z"/>
<path d="M2925 2950 c27 -12 43 -12 25 0 -8 5 -22 9 -30 9 -10 0 -8 -3 5 -9z"/>
<path d="M2982 2925 c0 -16 2 -22 5 -12 2 9 2 23 0 30 -3 6 -5 -1 -5 -18z"/>
<path d="M3528 2943 c7 -3 16 -2 19 1 4 3 -2 6 -13 5 -11 0 -14 -3 -6 -6z"/>
<path d="M4940 2935 c-7 -9 -11 -18 -8 -20 3 -3 11 1 18 10 7 9 11 18 8 20 -3
3 -11 -1 -18 -10z"/>
<path d="M4551 2924 c0 -11 3 -14 6 -6 3 7 2 16 -1 19 -3 4 -6 -2 -5 -13z"/>
<path d="M3561 2893 c-1 -7 -8 -13 -16 -13 -8 0 -15 -4 -15 -10 0 -12 10 -13
29 -1 7 5 11 15 8 22 -4 10 -6 10 -6 2z"/>
<path d="M3600 2880 c0 -5 5 -10 11 -10 5 0 7 5 4 10 -3 6 -8 10 -11 10 -2 0
-4 -4 -4 -10z"/>
<path d="M4916 2881 c-4 -7 -5 -15 -2 -18 9 -9 19 4 14 18 -4 11 -6 11 -12 0z"/>
<path d="M3811 2864 c0 -11 3 -14 6 -6 3 7 2 16 -1 19 -3 4 -6 -2 -5 -13z"/>
<path d="M4302 2835 c0 -16 2 -22 5 -12 2 9 2 23 0 30 -3 6 -5 -1 -5 -18z"/>
<path d="M4400 2840 c0 -5 5 -10 10 -10 6 0 10 5 10 10 0 6 -4 10 -10 10 -5 0
-10 -4 -10 -10z"/>
<path d="M4622 2830 c0 -14 2 -19 5 -12 2 6 2 18 0 25 -3 6 -5 1 -5 -13z"/>
<path d="M3601 2810 c0 -33 1 -34 10 -11 6 16 6 28 -1 35 -7 7 -10 -1 -9 -24z"/>
<path d="M3922 2815 c-22 -25 -31 -82 -12 -70 6 3 10 1 10 -4 0 -15 33 -14 48
1 18 18 15 52 -6 76 l-19 21 -21 -24z"/>
<path d="M4955 2830 c-3 -5 -1 -10 4 -10 6 0 11 5 11 10 0 6 -2 10 -4 10 -3 0
-8 -4 -11 -10z"/>
<path d="M3530 2805 l0 -25 20 20 c11 11 20 22 20 25 0 3 -9 5 -20 5 -15 0
-20 -7 -20 -25z"/>
<path d="M5347 2810 c56 -12 82 -26 122 -69 35 -38 36 -44 15 -165 -7 -37 -6
-38 17 -31 13 4 42 17 64 29 37 20 40 24 38 61 -2 22 -8 54 -13 71 -9 25 -15
31 -31 27 -12 -3 -23 -12 -26 -19 -11 -29 -21 -13 -12 18 5 18 9 36 9 40 0 8
-170 48 -201 47 -14 -1 -6 -5 18 -9z"/>
<path d="M3810 2806 c0 -2 7 -6 15 -10 8 -3 15 -1 15 4 0 6 -7 10 -15 10 -8 0
-15 -2 -15 -4z"/>
<path d="M4421 2794 c0 -11 3 -14 6 -6 3 7 2 16 -1 19 -3 4 -6 -2 -5 -13z"/>
<path d="M3537 2763 c-2 -4 0 -19 6 -33 l10 -25 5 24 c4 24 -12 50 -21 34z"/>
<path d="M3663 2680 c0 -41 2 -58 4 -37 2 20 2 54 0 75 -2 20 -4 3 -4 -38z"/>
<path d="M3812 2710 c0 -19 2 -27 5 -17 2 9 2 25 0 35 -3 9 -5 1 -5 -18z"/>
<path d="M4410 2705 c0 -8 7 -15 15 -15 8 0 15 7 15 15 0 8 -7 15 -15 15 -8 0
-15 -7 -15 -15z"/>
<path d="M4452 2700 c0 -14 2 -19 5 -12 2 6 2 18 0 25 -3 6 -5 1 -5 -13z"/>
<path d="M3695 2700 c-3 -5 -1 -10 4 -10 6 0 11 5 11 10 0 6 -2 10 -4 10 -3 0
-8 -4 -11 -10z"/>
<path d="M3600 2690 c0 -5 5 -10 10 -10 6 0 10 5 10 10 0 6 -4 10 -10 10 -5 0
-10 -4 -10 -10z"/>
<path d="M3691 2624 c0 -11 3 -14 6 -6 3 7 2 16 -1 19 -3 4 -6 -2 -5 -13z"/>
<path d="M4316 2612 c-4 -7 -6 -29 -5 -50 3 -45 -5 -62 -32 -62 -10 0 -19 -4
-19 -8 0 -4 25 -8 55 -9 42 -1 55 2 55 14 0 8 -4 12 -10 8 -5 -3 -8 14 -7 42
1 27 -3 47 -8 45 -5 -2 -12 4 -15 14 -5 13 -9 14 -14 6z"/>
<path d="M4391 2593 c0 -15 3 -22 6 -15 2 6 9 9 15 6 6 -4 8 1 6 11 -6 31 -28
30 -27 -2z"/>
<path d="M4429 2587 c-1 -9 -3 -21 -4 -27 -1 -5 -3 -15 -4 -21 0 -6 -8 -9 -15
-6 -9 4 -17 -2 -21 -14 -8 -26 -2 -33 23 -25 14 5 22 19 27 52 3 25 4 48 1 52
-3 3 -7 -2 -7 -11z"/>
<path d="M4212 2575 c-2 -24 6 -36 35 -52 27 -15 33 -16 33 -4 0 5 -13 14 -29
21 -17 7 -32 21 -34 33 -4 20 -4 20 -5 2z"/>
<path d="M4292 2560 c0 -14 2 -19 5 -12 2 6 2 18 0 25 -3 6 -5 1 -5 -13z"/>
<path d="M3671 2544 c0 -11 3 -14 6 -6 3 7 2 16 -1 19 -3 4 -6 -2 -5 -13z"/>
<path d="M4442 2520 c0 -14 2 -19 5 -12 2 6 2 18 0 25 -3 6 -5 1 -5 -13z"/>
<path d="M4655 2510 c3 -5 8 -10 11 -10 2 0 4 5 4 10 0 6 -5 10 -11 10 -5 0
-7 -4 -4 -10z"/>
<path d="M4148 2403 c7 -3 16 -2 19 1 4 3 -2 6 -13 5 -11 0 -14 -3 -6 -6z"/>
<path d="M4498 2403 c7 -3 16 -2 19 1 4 3 -2 6 -13 5 -11 0 -14 -3 -6 -6z"/>
<path d="M4160 2370 c0 -5 18 -10 40 -10 22 0 40 5 40 10 0 6 -18 10 -40 10
-22 0 -40 -4 -40 -10z"/>
<path d="M4782 1790 c-12 -16 -22 -37 -21 -47 1 -13 3 -10 9 7 l8 25 1 -26 c1
-31 28 -47 34 -21 8 32 8 92 -1 92 -4 0 -18 -13 -30 -30z"/>
<path d="M4944 1809 c-3 -6 -1 -16 5 -22 8 -8 11 -5 11 11 0 24 -5 28 -16 11z"/>
<path d="M4973 1781 c1 -14 9 -26 17 -28 10 -3 11 -2 4 4 -7 4 -14 17 -17 28
-5 16 -5 15 -4 -4z"/>
<path d="M4785 1680 c-3 -6 1 -7 9 -4 18 7 21 14 7 14 -6 0 -13 -4 -16 -10z"/>
<path d="M3061 1644 c0 -11 3 -14 6 -6 3 7 2 16 -1 19 -3 4 -6 -2 -5 -13z"/>
<path d="M1942 1625 c-40 -6 -87 -9 -103 -7 -18 3 -49 -5 -82 -21 -28 -14 -65
-31 -82 -37 -27 -11 -28 -13 -13 -24 10 -7 15 -15 13 -18 -3 -3 1 -10 8 -17
10 -8 29 -8 64 -2 58 11 91 6 116 -20 27 -29 69 -24 103 12 16 17 48 42 71 57
48 30 50 35 25 60 -28 28 -41 30 -120 17z"/>
<path d="M3022 1600 c0 -14 2 -19 5 -12 2 6 2 18 0 25 -3 6 -5 1 -5 -13z"/>
<path d="M1545 1570 c-3 -5 -2 -10 4 -10 5 0 13 5 16 10 3 6 2 10 -4 10 -5 0
-13 -4 -16 -10z"/>
<path d="M4580 1530 c0 -5 5 -10 10 -10 6 0 10 5 10 10 0 6 -4 10 -10 10 -5 0
-10 -4 -10 -10z"/>
<path d="M4168 1483 c6 -2 18 -2 25 0 6 3 1 5 -13 5 -14 0 -19 -2 -12 -5z"/>
<path d="M4463 1435 c0 -33 2 -45 4 -27 2 18 2 45 0 60 -2 15 -4 0 -4 -33z"/>
<path d="M4621 1454 c0 -11 3 -14 6 -6 3 7 2 16 -1 19 -3 4 -6 -2 -5 -13z"/>
<path d="M4381 1434 c0 -11 3 -14 6 -6 3 7 2 16 -1 19 -3 4 -6 -2 -5 -13z"/>
<path d="M3692 1405 c0 -16 2 -22 5 -12 2 9 2 23 0 30 -3 6 -5 -1 -5 -18z"/>
<path d="M4711 1404 c0 -11 3 -14 6 -6 3 7 2 16 -1 19 -3 4 -6 -2 -5 -13z"/>
<path d="M3630 1398 c0 -4 7 -8 15 -8 8 0 15 4 15 8 0 5 -7 9 -15 9 -8 0 -15
-4 -15 -9z"/>
<path d="M4202 1385 c0 -16 2 -22 5 -12 2 9 2 23 0 30 -3 6 -5 -1 -5 -18z"/>
<path d="M3413 1355 c0 -22 2 -30 4 -17 2 12 2 30 0 40 -3 9 -5 -1 -4 -23z"/>
<path d="M3861 1374 c0 -11 3 -14 6 -6 3 7 2 16 -1 19 -3 4 -6 -2 -5 -13z"/>
<path d="M4392 1360 c0 -19 2 -27 5 -17 2 9 2 25 0 35 -3 9 -5 1 -5 -18z"/>
<path d="M3910 1372 c0 -5 7 -13 16 -16 10 -4 14 -1 12 6 -5 15 -28 23 -28 10z"/>
<path d="M3951 1364 c0 -11 3 -14 6 -6 3 7 2 16 -1 19 -3 4 -6 -2 -5 -13z"/>
<path d="M3971 1364 c0 -11 3 -14 6 -6 3 7 2 16 -1 19 -3 4 -6 -2 -5 -13z"/>
<path d="M4167 1367 c-3 -8 1 -14 8 -14 7 0 11 6 8 14 -3 7 -6 13 -8 13 -2 0
-5 -6 -8 -13z"/>
<path d="M3560 1351 c0 -23 11 -33 26 -23 6 4 3 14 -8 25 -17 16 -18 16 -18
-2z"/>
<path d="M4715 1360 c-3 -5 -1 -10 4 -10 6 0 11 5 11 10 0 6 -2 10 -4 10 -3 0
-8 -4 -11 -10z"/>
<path d="M3290 1336 c0 -9 5 -16 10 -16 6 0 10 4 10 9 0 6 -4 13 -10 16 -5 3
-10 -1 -10 -9z"/>
<path d="M3650 1325 c0 -14 2 -25 4 -25 2 0 6 11 8 25 3 14 1 25 -3 25 -5 0
-9 -11 -9 -25z"/>
<path d="M3220 1320 c0 -5 7 -7 15 -4 8 4 15 8 15 10 0 2 -7 4 -15 4 -8 0 -15
-4 -15 -10z"/>
<path d="M4232 1310 c0 -14 2 -19 5 -12 2 6 2 18 0 25 -3 6 -5 1 -5 -13z"/>
<path d="M4150 1296 c0 -23 3 -27 20 -23 14 4 20 0 21 -11 0 -10 3 -12 6 -5 2
7 -3 23 -11 35 -9 12 -16 18 -16 13 0 -6 -5 -3 -10 5 -8 12 -10 9 -10 -14z"/>
<path d="M3583 1303 c-18 -6 -16 -43 1 -43 8 0 17 3 19 8 8 13 -8 39 -20 35z"/>
<path d="M4132 1290 c0 -14 2 -19 5 -12 2 6 2 18 0 25 -3 6 -5 1 -5 -13z"/>
<path d="M4212 1280 c0 -19 2 -27 5 -17 2 9 2 25 0 35 -3 9 -5 1 -5 -18z"/>
<path d="M3211 1283 c0 -13 2 -14 6 -4 5 11 7 11 14 0 7 -11 9 -10 9 4 0 9 -7
17 -15 17 -8 0 -15 -8 -14 -17z"/>
<path d="M3286 1291 c-3 -5 1 -11 9 -15 9 -3 15 0 15 9 0 16 -16 20 -24 6z"/>
<path d="M3512 1288 c-7 -7 -12 -17 -12 -22 0 -6 5 -4 10 4 9 13 11 13 20 0 5
-8 10 -10 10 -5 0 6 -4 16 -8 22 -6 10 -11 10 -20 1z"/>
<path d="M4105 1291 c-3 -5 -1 -12 5 -16 5 -3 10 1 10 9 0 18 -6 21 -15 7z"/>
<path d="M3440 1280 c8 -5 20 -10 25 -10 6 0 3 5 -5 10 -8 5 -19 10 -25 10 -5
0 -3 -5 5 -10z"/>
<path d="M3481 1274 c0 -11 3 -14 6 -6 3 7 2 16 -1 19 -3 4 -6 -2 -5 -13z"/>
<path d="M3882 1260 c0 -14 2 -19 5 -12 2 6 2 18 0 25 -3 6 -5 1 -5 -13z"/>
<path d="M4811 1264 c0 -11 3 -14 6 -6 3 7 2 16 -1 19 -3 4 -6 -2 -5 -13z"/>
<path d="M3640 1256 c0 -8 4 -17 9 -20 10 -7 9 -25 -2 -42 -4 -7 1 -14 13 -17
11 -3 20 -1 20 4 0 5 -3 9 -7 9 -5 0 -8 16 -8 37 0 20 -6 38 -12 40 -7 3 -13
-2 -13 -11z"/>
<path d="M3941 1254 c0 -11 3 -14 6 -6 3 7 2 16 -1 19 -3 4 -6 -2 -5 -13z"/>
<path d="M3700 1236 c0 -9 5 -16 10 -16 6 0 10 4 10 9 0 6 -4 13 -10 16 -5 3
-10 -1 -10 -9z"/>
<path d="M3292 1215 c0 -16 2 -22 5 -12 2 9 2 23 0 30 -3 6 -5 -1 -5 -18z"/>
<path d="M3435 1230 c3 -5 8 -10 11 -10 2 0 4 5 4 10 0 6 -5 10 -11 10 -5 0
-7 -4 -4 -10z"/>
<path d="M4452 1220 c0 -14 2 -19 5 -12 2 6 2 18 0 25 -3 6 -5 1 -5 -13z"/>
<path d="M4532 1215 c0 -16 2 -22 5 -12 2 9 2 23 0 30 -3 6 -5 -1 -5 -18z"/>
<path d="M3371 1214 c0 -11 3 -14 6 -6 3 7 2 16 -1 19 -3 4 -6 -2 -5 -13z"/>
<path d="M3401 1214 c0 -11 3 -14 6 -6 3 7 2 16 -1 19 -3 4 -6 -2 -5 -13z"/>
<path d="M3461 1214 c0 -11 3 -14 6 -6 3 7 2 16 -1 19 -3 4 -6 -2 -5 -13z"/>
<path d="M3622 1205 c0 -16 2 -22 5 -12 2 9 2 23 0 30 -3 6 -5 -1 -5 -18z"/>
<path d="M4042 1210 c0 -14 2 -19 5 -12 2 6 2 18 0 25 -3 6 -5 1 -5 -13z"/>
<path d="M4182 1210 c0 -14 2 -19 5 -12 2 6 2 18 0 25 -3 6 -5 1 -5 -13z"/>
<path d="M4391 1214 c0 -11 3 -14 6 -6 3 7 2 16 -1 19 -3 4 -6 -2 -5 -13z"/>
<path d="M3697 1188 c-4 -12 -4 -24 -2 -27 3 -2 5 2 6 10 1 8 5 3 9 -11 7 -22
8 -20 7 13 -1 41 -12 49 -20 15z"/>
<path d="M3182 1170 c0 -19 2 -27 5 -17 2 9 2 25 0 35 -3 9 -5 1 -5 -18z"/>
<path d="M3471 1174 c0 -11 3 -14 6 -6 3 7 2 16 -1 19 -3 4 -6 -2 -5 -13z"/>
<path d="M3251 1154 c0 -11 3 -14 6 -6 3 7 2 16 -1 19 -3 4 -6 -2 -5 -13z"/>
<path d="M5602 1156 l-44 -11 24 -23 c14 -12 29 -22 36 -22 13 0 42 39 42 57
0 15 -1 15 -58 -1z"/>
<path d="M3200 1149 c0 -5 5 -7 10 -4 6 3 10 8 10 11 0 2 -4 4 -10 4 -5 0 -10
-5 -10 -11z"/>
<path d="M4463 1125 c0 -22 2 -30 4 -17 2 12 2 30 0 40 -3 9 -5 -1 -4 -23z"/>
<path d="M3278 1143 c6 -2 18 -2 25 0 6 3 1 5 -13 5 -14 0 -19 -2 -12 -5z"/>
<path d="M4204 1040 c0 -58 1 -81 3 -52 2 28 2 76 0 105 -2 28 -3 5 -3 -53z"/>
<path d="M3915 1120 c-4 -6 -11 -8 -16 -5 -5 4 -9 1 -9 -4 0 -15 27 -14 34 2
3 6 3 2 0 -10 -3 -13 -1 -23 5 -23 6 0 11 11 11 25 0 25 -14 33 -25 15z"/>
<path d="M3970 1119 c0 -5 7 -9 15 -9 8 0 15 -4 15 -10 0 -5 5 -10 11 -10 6 0
9 8 7 18 -3 17 -48 27 -48 11z"/>
<path d="M6190 1114 c-25 -7 -78 -14 -118 -14 -40 0 -81 -4 -91 -9 -10 -6 -31
-12 -47 -14 -27 -3 -29 -7 -32 -49 -2 -28 2 -51 10 -59 15 -15 18 -184 5 -206
-12 -18 42 -30 54 -12 5 8 8 61 7 118 -3 133 1 138 122 131 46 -3 85 -10 87
-16 4 -12 -64 -44 -95 -44 -20 0 -47 -32 -36 -43 3 -3 18 1 32 8 30 15 272 41
296 32 14 -6 16 6 16 78 0 47 -3 85 -7 85 -5 -1 -19 -7 -33 -15 -14 -8 -40
-14 -57 -15 -26 0 -36 6 -48 30 -9 17 -17 30 -18 29 -1 0 -22 -7 -47 -15z
m175 -99 c0 -17 -10 -21 -68 -29 -70 -10 -93 -3 -78 23 10 16 65 30 111 28 28
-2 35 -6 35 -22z"/>
<path d="M3365 1110 c-3 -5 -1 -10 4 -10 6 0 11 5 11 10 0 6 -2 10 -4 10 -3 0
-8 -4 -11 -10z"/>
<path d="M3770 1100 c-27 -27 -13 -64 25 -68 33 -4 44 5 47 41 1 15 6 27 10
27 4 0 8 4 8 8 0 18 -71 11 -90 -8z"/>
<path d="M4462 1060 c0 -14 2 -19 5 -12 2 6 2 18 0 25 -3 6 -5 1 -5 -13z"/>
<path d="M3700 1015 c0 -8 4 -15 10 -15 5 0 7 7 4 15 -4 8 -8 15 -10 15 -2 0
-4 -7 -4 -15z"/>
<path d="M4461 994 c0 -11 3 -14 6 -6 3 7 2 16 -1 19 -3 4 -6 -2 -5 -13z"/>
<path d="M3710 866 c0 -19 -2 -40 -3 -48 -2 -7 -2 -9 1 -4 2 4 8 2 13 -5 6 -9
9 5 9 39 0 28 -4 52 -10 52 -5 0 -10 -15 -10 -34z"/>
<path d="M3692 870 c0 -14 2 -19 5 -12 2 6 2 18 0 25 -3 6 -5 1 -5 -13z"/>
<path d="M3290 855 c0 -8 4 -15 10 -15 5 0 7 7 4 15 -4 8 -8 15 -10 15 -2 0
-4 -7 -4 -15z"/>
<path d="M4272 800 c0 -14 2 -19 5 -12 2 6 2 18 0 25 -3 6 -5 1 -5 -13z"/>
<path d="M4782 700 c0 -14 2 -19 5 -12 2 6 2 18 0 25 -3 6 -5 1 -5 -13z"/>
<path d="M3731 694 c0 -11 3 -14 6 -6 3 7 2 16 -1 19 -3 4 -6 -2 -5 -13z"/>
<path d="M3115 690 c-3 -5 1 -10 9 -10 9 0 16 5 16 10 0 6 -4 10 -9 10 -6 0
-13 -4 -16 -10z"/>
<path d="M136 627 c-27 -11 -28 -13 -23 -67 4 -38 12 -60 26 -71 18 -15 18
-18 5 -23 -22 -9 -24 -8 -18 9 5 11 2 13 -10 9 -11 -4 -27 3 -46 21 -15 15
-36 25 -47 23 -17 -3 -18 -20 -21 -266 l-2 -262 49 0 c56 0 76 16 56 43 -21
29 -2 76 31 77 6 0 27 -22 45 -50 l34 -49 60 -2 c116 -2 155 4 155 25 0 14
-33 56 -44 56 -3 0 -19 15 -35 32 -27 30 -32 32 -58 22 -18 -7 -38 -7 -56 -1
-22 7 -26 14 -24 40 2 32 -8 41 -81 68 -30 11 -33 16 -28 40 3 16 0 32 -8 38
-7 6 -12 23 -9 39 2 18 1 21 -4 11 -12 -25 -50 -7 -48 23 3 42 50 32 68 -14 3
-10 15 -18 26 -18 15 0 19 -6 18 -27 -2 -25 1 -28 35 -31 33 -3 39 0 50 26 11
25 16 29 36 21 12 -4 22 -15 22 -24 0 -10 9 -15 28 -15 35 0 57 14 48 31 -21
42 -36 62 -55 76 -20 14 -23 13 -35 -2 -10 -13 -15 -15 -20 -6 -5 7 0 21 10
32 16 18 16 20 -9 43 -15 14 -27 35 -27 46 0 16 -5 21 -22 18 -20 -3 -23 2
-26 35 -3 40 -3 40 -46 24z m144 -587 c0 -5 -4 -10 -9 -10 -6 0 -13 5 -16 10
-3 6 1 10 9 10 9 0 16 -4 16 -10z"/>
<path d="M234 616 c-9 -24 12 -44 28 -28 10 10 8 16 -5 29 -15 15 -17 15 -23
-1z"/>
<path d="M3242 590 c0 -14 2 -19 5 -12 2 6 2 18 0 25 -3 6 -5 1 -5 -13z"/>
<path d="M3290 584 c0 -8 5 -12 10 -9 6 4 8 11 5 16 -9 14 -15 11 -15 -7z"/>
<path d="M3261 574 c0 -11 3 -14 6 -6 3 7 2 16 -1 19 -3 4 -6 -2 -5 -13z"/>
<path d="M3342 570 c0 -14 2 -19 5 -12 2 6 2 18 0 25 -3 6 -5 1 -5 -13z"/>
<path d="M3458 545 c-3 -14 -1 -25 3 -25 5 0 9 11 9 25 0 14 -2 25 -4 25 -2 0
-6 -11 -8 -25z"/>
<path d="M3577 563 c-4 -3 -7 -19 -7 -35 0 -21 5 -28 20 -28 11 0 20 5 20 11
0 6 -7 8 -16 5 -13 -5 -15 -1 -12 24 5 32 5 33 -5 23z"/>
<path d="M3623 520 c0 -30 2 -43 4 -27 2 15 2 39 0 55 -2 15 -4 2 -4 -28z"/>
<path d="M3721 554 c0 -11 3 -14 6 -6 3 7 2 16 -1 19 -3 4 -6 -2 -5 -13z"/>
<path d="M3125 550 c-3 -5 -1 -10 4 -10 6 0 11 5 11 10 0 6 -2 10 -4 10 -3 0
-8 -4 -11 -10z"/>
<path d="M3500 541 c0 -10 7 -21 15 -24 17 -7 30 9 15 18 -6 4 -8 11 -5 16 4
5 -1 9 -9 9 -9 0 -16 -8 -16 -19z"/>
<path d="M4782 535 c0 -16 2 -22 5 -12 2 9 2 23 0 30 -3 6 -5 -1 -5 -18z"/>
<path d="M4621 534 c0 -11 3 -14 6 -6 3 7 2 16 -1 19 -3 4 -6 -2 -5 -13z"/>
<path d="M3170 530 c0 -5 4 -10 9 -10 6 0 13 5 16 10 3 6 -1 10 -9 10 -9 0
-16 -4 -16 -10z"/>
<path d="M3230 529 c0 -5 5 -7 10 -4 6 3 10 8 10 11 0 2 -4 4 -10 4 -5 0 -10
-5 -10 -11z"/>
<path d="M3982 510 c0 -19 2 -27 5 -17 2 9 2 25 0 35 -3 9 -5 1 -5 -18z"/>
<path d="M4670 530 c-13 -8 -12 -10 3 -10 9 0 17 5 17 10 0 12 -1 12 -20 0z"/>
<path d="M4730 518 c0 -4 9 -8 20 -8 11 0 20 4 20 8 0 4 -9 8 -20 8 -11 0 -20
-4 -20 -8z"/>
<path d="M3822 500 c0 -14 2 -19 5 -12 2 6 2 18 0 25 -3 6 -5 1 -5 -13z"/>
<path d="M4190 510 c0 -5 7 -10 16 -10 8 0 12 5 9 10 -3 6 -10 10 -16 10 -5 0
-9 -4 -9 -10z"/>
<path d="M4232 500 c0 -14 2 -19 5 -12 2 6 2 18 0 25 -3 6 -5 1 -5 -13z"/>
<path d="M4800 509 c0 -5 11 -9 25 -9 14 0 25 2 25 4 0 2 -11 6 -25 8 -14 3
-25 1 -25 -3z"/>
<path d="M3660 495 c0 -8 4 -15 10 -15 5 0 7 7 4 15 -4 8 -8 15 -10 15 -2 0
-4 -7 -4 -15z"/>
<path d="M3501 484 c0 -11 3 -14 6 -6 3 7 2 16 -1 19 -3 4 -6 -2 -5 -13z"/>
<path d="M3711 474 c0 -11 3 -14 6 -6 3 7 2 16 -1 19 -3 4 -6 -2 -5 -13z"/>
<path d="M3922 460 c-8 -16 -11 -36 -9 -42 3 -7 6 -2 7 12 l2 25 8 -25 c7 -21
8 -19 9 18 1 23 0 42 -2 42 -1 0 -8 -13 -15 -30z"/>
<path d="M3691 464 c0 -11 3 -14 6 -6 3 7 2 16 -1 19 -3 4 -6 -2 -5 -13z"/>
<path d="M3842 460 c0 -14 2 -19 5 -12 2 6 2 18 0 25 -3 6 -5 1 -5 -13z"/>
<path d="M3735 437 c1 -19 -1 -60 -6 -92 -8 -64 -4 -86 7 -39 4 16 11 32 16
35 9 6 -1 129 -12 129 -4 0 -6 -15 -5 -33z"/>
<path d="M3101 431 c-1 -8 -9 -20 -18 -27 -10 -7 -13 -14 -7 -14 17 0 37 27
31 42 -4 10 -6 10 -6 -1z"/>
<path d="M4231 414 c0 -11 3 -14 6 -6 3 7 2 16 -1 19 -3 4 -6 -2 -5 -13z"/>
<path d="M3852 370 c0 -14 2 -19 5 -12 2 6 2 18 0 25 -3 6 -5 1 -5 -13z"/>
<path d="M3870 370 c0 -11 4 -20 9 -20 5 0 7 9 4 20 -3 11 -7 20 -9 20 -2 0
-4 -9 -4 -20z"/>
<path d="M3770 370 c0 -5 5 -10 11 -10 5 0 7 5 4 10 -3 6 -8 10 -11 10 -2 0
-4 -4 -4 -10z"/>
<path d="M3025 360 c-3 -6 1 -7 9 -4 18 7 21 14 7 14 -6 0 -13 -4 -16 -10z"/>
<path d="M585 351 c-3 -5 -2 -12 3 -15 12 -7 52 4 52 15 0 12 -47 12 -55 0z"/>
<path d="M3921 324 c0 -11 3 -14 6 -6 3 7 2 16 -1 19 -3 4 -6 -2 -5 -13z"/>
<path d="M3762 295 c0 -16 2 -22 5 -12 2 9 2 23 0 30 -3 6 -5 -1 -5 -18z"/>
<path d="M4071 304 c0 -11 3 -14 6 -6 3 7 2 16 -1 19 -3 4 -6 -2 -5 -13z"/>
<path d="M680 296 c0 -7 7 -19 15 -26 19 -15 47 4 38 26 -7 18 -53 19 -53 0z"/>
<path d="M3970 268 c0 -40 -3 -46 -19 -43 -14 2 -18 -3 -19 -23 0 -15 -10 -67
-20 -115 -17 -76 -18 -88 -5 -85 10 2 25 41 44 118 37 141 40 162 28 181 -6 9
-9 -1 -9 -33z"/>
<path d="M550 290 c-13 -9 -12 -12 4 -25 36 -28 65 -8 34 23 -14 14 -19 15
-38 2z"/>
<path d="M4033 264 c-7 -7 -13 -26 -12 -41 l1 -28 7 25 c6 22 8 23 14 7 9 -23
27 -12 27 16 0 17 -2 19 -9 8 -7 -11 -10 -10 -13 6 -2 17 -5 19 -15 7z"/>
<path d="M297 233 c-12 -12 -7 -22 8 -17 8 4 15 10 15 15 0 11 -14 12 -23 2z"/>
<path d="M4232 215 c0 -16 2 -22 5 -12 2 9 2 23 0 30 -3 6 -5 -1 -5 -18z"/>
<path d="M4621 224 c0 -11 3 -14 6 -6 3 7 2 16 -1 19 -3 4 -6 -2 -5 -13z"/>
<path d="M4110 220 c0 -5 5 -10 10 -10 6 0 10 5 10 10 0 6 -4 10 -10 10 -5 0
-10 -4 -10 -10z"/>
<path d="M4170 212 c0 -8 8 -12 22 -10 31 4 33 24 3 24 -14 0 -25 -6 -25 -14z"/>
<path d="M4446 108 c3 -4 9 -8 15 -8 5 0 9 4 9 8 0 5 -7 9 -15 9 -8 0 -12 -4
-9 -9z"/>
</g>
</svg>
